<svg width="90" height="110" viewBox="0 0 18 22" fill="none" xmlns="http://www.w3.org/2000/svg">
<path d="M9.10315 3.81689C9.88101 3.81689 10.5116 3.18631 10.5116 2.40845C10.5116 1.63058 9.88101 1 9.10315 1C8.32529 1 7.6947 1.63058 7.6947 2.40845C7.6947 3.18631 8.32529 3.81689 9.10315 3.81689Z" stroke="#3A3847" stroke-width="0.85" stroke-miterlimit="10" stroke-linecap="round"/>
<path d="M9.10321 18.1831C8.14546 18.1831 7.24406 18.0704 6.34265 17.9577C6.34265 18.014 6.34265 18.1267 6.34265 18.1831C6.34265 19.7042 7.58208 20.9999 9.15954 20.9999C10.737 20.9999 11.9764 19.7605 11.9764 18.1831C11.9764 18.1267 11.9764 18.014 11.9764 17.9577C11.0187 18.0704 10.061 18.1831 9.10321 18.1831Z" stroke="#3A3847" stroke-width="0.85" stroke-miterlimit="10" stroke-linecap="round"/>
<path d="M16.9906 14.0704C16.3709 12.6056 16.0329 12.8873 14.4554 10.9155C12.709 8.831 14.3428 3.87327 10.3428 3.0282C10.1174 3.4789 9.66673 3.81693 9.10335 3.81693C8.53997 3.81693 8.08927 3.4789 7.86391 3.0282C3.92026 3.87327 5.49772 8.831 3.75125 10.9155C2.17379 12.831 1.83576 12.5493 1.21604 14.0704C0.709004 15.2535 1.15971 15.9859 1.8921 16.4366C3.46956 17.3944 6.34279 18.1831 9.10335 18.1831C11.8639 18.1831 14.7371 17.3944 16.3146 16.4366C17.047 15.9859 17.4977 15.2535 16.9906 14.0704Z" stroke="#3A3847" stroke-width="0.85" stroke-miterlimit="10" stroke-linecap="round"/>
</svg>
